<svg width="60" height="15" viewBox="0 0 60 15" fill="none" xmlns="http://www.w3.org/2000/svg">
<path d="M8.496 9.212L6.471 3.965C6.411 3.809 6.348 3.629 6.282 3.425C6.216 3.215 6.153 2.993 6.093 2.759C5.967 3.245 5.838 3.65 5.706 3.974L3.681 9.212H8.496ZM12.132 14H10.782C10.626 14 10.5 13.961 10.404 13.883C10.308 13.805 10.236 13.706 10.188 13.586L8.982 10.472H3.195L1.989 13.586C1.953 13.694 1.884 13.79 1.782 13.874C1.68 13.958 1.554 14 1.404 14H0.054L5.211 1.103H6.975L12.132 14ZM14.9365 6.71C15.2245 6.086 15.5785 5.6 15.9985 5.252C16.4185 4.898 16.9315 4.721 17.5375 4.721C17.7295 4.721 17.9125 4.742 18.0865 4.784C18.2665 4.826 18.4255 4.892 18.5635 4.982L18.4465 6.179C18.4105 6.329 18.3205 6.404 18.1765 6.404C18.0925 6.404 17.9695 6.386 17.8075 6.35C17.6455 6.314 17.4625 6.296 17.2585 6.296C16.9705 6.296 16.7125 6.338 16.4845 6.422C16.2625 6.506 16.0615 6.632 15.8815 6.8C15.7075 6.962 15.5485 7.166 15.4045 7.412C15.2665 7.652 15.1405 7.928 15.0265 8.24V14H13.4155V4.883H14.3335C14.5075 4.883 14.6275 4.916 14.6935 4.982C14.7595 5.048 14.8045 5.162 14.8285 5.324L14.9365 6.71ZM28.4321 14H26.8301V6.224H22.1321V11.696C22.1321 12.08 22.2251 12.365 22.4111 12.551C22.5971 12.737 22.8371 12.83 23.1311 12.83C23.2991 12.83 23.4431 12.809 23.5631 12.767C23.6891 12.719 23.7971 12.668 23.8871 12.614C23.9771 12.56 24.0521 12.512 24.1121 12.47C24.1781 12.422 24.2351 12.398 24.2831 12.398C24.3671 12.398 24.4421 12.449 24.5081 12.551L24.9761 13.316C24.7001 13.574 24.3671 13.778 23.9771 13.928C23.5871 14.072 23.1851 14.144 22.7711 14.144C22.0511 14.144 21.4961 13.943 21.1061 13.541C20.7221 13.139 20.5301 12.56 20.5301 11.804V6.224H19.4321C19.3361 6.224 19.2551 6.197 19.1891 6.143C19.1231 6.083 19.0901 5.993 19.0901 5.873V5.234L20.5841 5.036L20.9531 2.228C20.9711 2.138 21.0101 2.066 21.0701 2.012C21.1361 1.952 21.2201 1.922 21.3221 1.922H22.1321V5.063H28.4321V14ZM28.8281 1.958C28.8281 2.114 28.7951 2.261 28.7291 2.399C28.6691 2.531 28.5851 2.648 28.4771 2.75C28.3751 2.852 28.2551 2.933 28.1171 2.993C27.9791 3.053 27.8321 3.083 27.6761 3.083C27.5201 3.083 27.3731 3.053 27.2351 2.993C27.1031 2.933 26.9861 2.852 26.8841 2.75C26.7821 2.648 26.7011 2.531 26.6411 2.399C26.5811 2.261 26.5511 2.114 26.5511 1.958C26.5511 1.802 26.5811 1.655 26.6411 1.517C26.7011 1.373 26.7821 1.25 26.8841 1.148C26.9861 1.04 27.1031 0.955999 27.2351 0.895999C27.3731 0.835999 27.5201 0.805999 27.6761 0.805999C27.8321 0.805999 27.9791 0.835999 28.1171 0.895999C28.2551 0.955999 28.3751 1.04 28.4771 1.148C28.5851 1.25 28.6691 1.373 28.7291 1.517C28.7951 1.655 28.8281 1.802 28.8281 1.958ZM37.4089 6.503C37.3609 6.569 37.3129 6.62 37.2649 6.656C37.2169 6.692 37.1509 6.71 37.0669 6.71C36.9769 6.71 36.8779 6.674 36.7699 6.602C36.6619 6.524 36.5269 6.44 36.3649 6.35C36.2089 6.26 36.0139 6.179 35.7799 6.107C35.5519 6.029 35.2699 5.99 34.9339 5.99C34.4839 5.99 34.0879 6.071 33.7459 6.233C33.4039 6.389 33.1159 6.617 32.8819 6.917C32.6539 7.217 32.4799 7.58 32.3599 8.006C32.2459 8.432 32.1889 8.909 32.1889 9.437C32.1889 9.989 32.2519 10.481 32.3779 10.913C32.5039 11.339 32.6809 11.699 32.9089 11.993C33.1429 12.281 33.4219 12.503 33.7459 12.659C34.0759 12.809 34.4449 12.884 34.8529 12.884C35.2429 12.884 35.5639 12.839 35.8159 12.749C36.0679 12.653 36.2749 12.548 36.4369 12.434C36.6049 12.32 36.7429 12.218 36.8509 12.128C36.9649 12.032 37.0759 11.984 37.1839 11.984C37.3159 11.984 37.4179 12.035 37.4899 12.137L37.9399 12.722C37.7419 12.968 37.5169 13.178 37.2649 13.352C37.0129 13.526 36.7399 13.673 36.4459 13.793C36.1579 13.907 35.8549 13.991 35.5369 14.045C35.2189 14.099 34.8949 14.126 34.5649 14.126C33.9949 14.126 33.4639 14.021 32.9719 13.811C32.4859 13.601 32.0629 13.298 31.7029 12.902C31.3429 12.5 31.0609 12.008 30.8569 11.426C30.6529 10.844 30.5509 10.181 30.5509 9.437C30.5509 8.759 30.6439 8.132 30.8299 7.556C31.0219 6.98 31.2979 6.485 31.6579 6.071C32.0239 5.651 32.4709 5.324 32.9989 5.09C33.5329 4.856 34.1449 4.739 34.8349 4.739C35.4769 4.739 36.0409 4.844 36.5269 5.054C37.0189 5.258 37.4539 5.549 37.8319 5.927L37.4089 6.503ZM41.3156 0.743V14H39.7136V0.743H41.3156ZM50.0155 8.447C50.0155 8.075 49.9615 7.736 49.8535 7.43C49.7515 7.118 49.5985 6.851 49.3945 6.629C49.1965 6.401 48.9535 6.227 48.6655 6.107C48.3775 5.981 48.0505 5.918 47.6845 5.918C46.9165 5.918 46.3075 6.143 45.8575 6.593C45.4135 7.037 45.1375 7.655 45.0295 8.447H50.0155ZM51.3115 12.722C51.1135 12.962 50.8765 13.172 50.6005 13.352C50.3245 13.526 50.0275 13.67 49.7095 13.784C49.3975 13.898 49.0735 13.982 48.7375 14.036C48.4015 14.096 48.0685 14.126 47.7385 14.126C47.1085 14.126 46.5265 14.021 45.9925 13.811C45.4645 13.595 45.0055 13.283 44.6155 12.875C44.2315 12.461 43.9315 11.951 43.7155 11.345C43.4995 10.739 43.3915 10.043 43.3915 9.257C43.3915 8.621 43.4875 8.027 43.6795 7.475C43.8775 6.923 44.1595 6.446 44.5255 6.044C44.8915 5.636 45.3385 5.318 45.8665 5.09C46.3945 4.856 46.9885 4.739 47.6485 4.739C48.1945 4.739 48.6985 4.832 49.1605 5.018C49.6285 5.198 50.0305 5.462 50.3665 5.81C50.7085 6.152 50.9755 6.578 51.1675 7.088C51.3595 7.592 51.4555 8.168 51.4555 8.816C51.4555 9.068 51.4285 9.236 51.3745 9.32C51.3205 9.404 51.2185 9.446 51.0685 9.446H44.9755C44.9935 10.022 45.0715 10.523 45.2095 10.949C45.3535 11.375 45.5515 11.732 45.8035 12.02C46.0555 12.302 46.3555 12.515 46.7035 12.659C47.0515 12.797 47.4415 12.866 47.8735 12.866C48.2755 12.866 48.6205 12.821 48.9085 12.731C49.2025 12.635 49.4545 12.533 49.6645 12.425C49.8745 12.317 50.0485 12.218 50.1865 12.128C50.3305 12.032 50.4535 11.984 50.5555 11.984C50.6875 11.984 50.7895 12.035 50.8615 12.137L51.3115 12.722ZM58.7333 6.386C58.6613 6.518 58.5503 6.584 58.4003 6.584C58.3103 6.584 58.2083 6.551 58.0943 6.485C57.9803 6.419 57.8393 6.347 57.6713 6.269C57.5093 6.185 57.3143 6.11 57.0863 6.044C56.8583 5.972 56.5883 5.936 56.2763 5.936C56.0063 5.936 55.7633 5.972 55.5473 6.044C55.3313 6.11 55.1453 6.203 54.9893 6.323C54.8393 6.443 54.7223 6.584 54.6383 6.746C54.5603 6.902 54.5213 7.073 54.5213 7.259C54.5213 7.493 54.5873 7.688 54.7193 7.844C54.8573 8 55.0373 8.135 55.2593 8.249C55.4813 8.363 55.7333 8.465 56.0153 8.555C56.2973 8.639 56.5853 8.732 56.8793 8.834C57.1793 8.93 57.4703 9.038 57.7523 9.158C58.0343 9.278 58.2863 9.428 58.5083 9.608C58.7303 9.788 58.9073 10.01 59.0393 10.274C59.1773 10.532 59.2463 10.844 59.2463 11.21C59.2463 11.63 59.1713 12.02 59.0213 12.38C58.8713 12.734 58.6493 13.043 58.3553 13.307C58.0613 13.565 57.7013 13.769 57.2753 13.919C56.8493 14.069 56.3573 14.144 55.7993 14.144C55.1633 14.144 54.5873 14.042 54.0713 13.838C53.5553 13.628 53.1173 13.361 52.7573 13.037L53.1353 12.425C53.1833 12.347 53.2403 12.287 53.3063 12.245C53.3723 12.203 53.4563 12.182 53.5583 12.182C53.6663 12.182 53.7803 12.224 53.9003 12.308C54.0203 12.392 54.1643 12.485 54.3323 12.587C54.5063 12.689 54.7163 12.782 54.9623 12.866C55.2083 12.95 55.5143 12.992 55.8803 12.992C56.1923 12.992 56.4653 12.953 56.6993 12.875C56.9333 12.791 57.1283 12.68 57.2843 12.542C57.4403 12.404 57.5543 12.245 57.6263 12.065C57.7043 11.885 57.7433 11.693 57.7433 11.489C57.7433 11.237 57.6743 11.03 57.5363 10.868C57.4043 10.7 57.2273 10.559 57.0053 10.445C56.7833 10.325 56.5283 10.223 56.2403 10.139C55.9583 10.049 55.6673 9.956 55.3673 9.86C55.0733 9.764 54.7823 9.656 54.4943 9.536C54.2123 9.41 53.9603 9.254 53.7383 9.068C53.5163 8.882 53.3363 8.654 53.1983 8.384C53.0663 8.108 53.0003 7.775 53.0003 7.385C53.0003 7.037 53.0723 6.704 53.2163 6.386C53.3603 6.062 53.5703 5.78 53.8463 5.54C54.1223 5.294 54.4613 5.099 54.8633 4.955C55.2653 4.811 55.7243 4.739 56.2403 4.739C56.8403 4.739 57.3773 4.835 57.8513 5.027C58.3313 5.213 58.7453 5.471 59.0933 5.801L58.7333 6.386Z" fill="white"/>
</svg>
