<svg width="74" height="15" viewBox="0 0 74 15" fill="none" xmlns="http://www.w3.org/2000/svg">
<path d="M7.964 12.533V14H0.647V1.103H2.384V12.533H7.964ZM12.7077 4.739C13.3737 4.739 13.9737 4.85 14.5077 5.072C15.0417 5.294 15.4977 5.609 15.8757 6.017C16.2537 6.425 16.5417 6.92 16.7397 7.502C16.9437 8.078 17.0457 8.723 17.0457 9.437C17.0457 10.157 16.9437 10.805 16.7397 11.381C16.5417 11.957 16.2537 12.449 15.8757 12.857C15.4977 13.265 15.0417 13.58 14.5077 13.802C13.9737 14.018 13.3737 14.126 12.7077 14.126C12.0357 14.126 11.4297 14.018 10.8897 13.802C10.3557 13.58 9.8997 13.265 9.5217 12.857C9.1437 12.449 8.8527 11.957 8.6487 11.381C8.4507 10.805 8.3517 10.157 8.3517 9.437C8.3517 8.723 8.4507 8.078 8.6487 7.502C8.8527 6.92 9.1437 6.425 9.5217 6.017C9.8997 5.609 10.3557 5.294 10.8897 5.072C11.4297 4.85 12.0357 4.739 12.7077 4.739ZM12.7077 12.875C13.6077 12.875 14.2797 12.575 14.7237 11.975C15.1677 11.369 15.3897 10.526 15.3897 9.446C15.3897 8.36 15.1677 7.514 14.7237 6.908C14.2797 6.302 13.6077 5.999 12.7077 5.999C12.2517 5.999 11.8527 6.077 11.5107 6.233C11.1747 6.389 10.8927 6.614 10.6647 6.908C10.4427 7.202 10.2747 7.565 10.1607 7.997C10.0527 8.423 9.9987 8.906 9.9987 9.446C9.9987 10.526 10.2207 11.369 10.6647 11.975C11.1147 12.575 11.7957 12.875 12.7077 12.875ZM25.4226 6.503C25.3746 6.569 25.3266 6.62 25.2786 6.656C25.2306 6.692 25.1646 6.71 25.0806 6.71C24.9906 6.71 24.8916 6.674 24.7836 6.602C24.6756 6.524 24.5406 6.44 24.3786 6.35C24.2226 6.26 24.0276 6.179 23.7936 6.107C23.5656 6.029 23.2836 5.99 22.9476 5.99C22.4976 5.99 22.1016 6.071 21.7596 6.233C21.4176 6.389 21.1296 6.617 20.8956 6.917C20.6676 7.217 20.4936 7.58 20.3736 8.006C20.2596 8.432 20.2026 8.909 20.2026 9.437C20.2026 9.989 20.2656 10.481 20.3916 10.913C20.5176 11.339 20.6946 11.699 20.9226 11.993C21.1566 12.281 21.4356 12.503 21.7596 12.659C22.0896 12.809 22.4586 12.884 22.8666 12.884C23.2566 12.884 23.5776 12.839 23.8296 12.749C24.0816 12.653 24.2886 12.548 24.4506 12.434C24.6186 12.32 24.7566 12.218 24.8646 12.128C24.9786 12.032 25.0896 11.984 25.1976 11.984C25.3296 11.984 25.4316 12.035 25.5036 12.137L25.9536 12.722C25.7556 12.968 25.5306 13.178 25.2786 13.352C25.0266 13.526 24.7536 13.673 24.4596 13.793C24.1716 13.907 23.8686 13.991 23.5506 14.045C23.2326 14.099 22.9086 14.126 22.5786 14.126C22.0086 14.126 21.4776 14.021 20.9856 13.811C20.4996 13.601 20.0766 13.298 19.7166 12.902C19.3566 12.5 19.0746 12.008 18.8706 11.426C18.6666 10.844 18.5646 10.181 18.5646 9.437C18.5646 8.759 18.6576 8.132 18.8436 7.556C19.0356 6.98 19.3116 6.485 19.6716 6.071C20.0376 5.651 20.4846 5.324 21.0126 5.09C21.5466 4.856 22.1586 4.739 22.8486 4.739C23.4906 4.739 24.0546 4.844 24.5406 5.054C25.0326 5.258 25.4676 5.549 25.8456 5.927L25.4226 6.503ZM32.6143 9.896C31.8763 9.92 31.2463 9.98 30.7243 10.076C30.2083 10.166 29.7853 10.286 29.4553 10.436C29.1313 10.586 28.8943 10.763 28.7443 10.967C28.6003 11.171 28.5283 11.399 28.5283 11.651C28.5283 11.891 28.5673 12.098 28.6453 12.272C28.7233 12.446 28.8283 12.59 28.9603 12.704C29.0983 12.812 29.2573 12.893 29.4373 12.947C29.6233 12.995 29.8213 13.019 30.0313 13.019C30.3133 13.019 30.5713 12.992 30.8053 12.938C31.0393 12.878 31.2583 12.794 31.4623 12.686C31.6723 12.578 31.8703 12.449 32.0563 12.299C32.2483 12.149 32.4343 11.978 32.6143 11.786V9.896ZM27.4393 6.17C27.9433 5.684 28.4863 5.321 29.0683 5.081C29.6503 4.841 30.2953 4.721 31.0033 4.721C31.5133 4.721 31.9663 4.805 32.3623 4.973C32.7583 5.141 33.0913 5.375 33.3613 5.675C33.6313 5.975 33.8353 6.338 33.9733 6.764C34.1113 7.19 34.1803 7.658 34.1803 8.168V14H33.4693C33.3133 14 33.1933 13.976 33.1093 13.928C33.0253 13.874 32.9593 13.772 32.9113 13.622L32.7313 12.758C32.4913 12.98 32.2573 13.178 32.0293 13.352C31.8013 13.52 31.5613 13.664 31.3093 13.784C31.0573 13.898 30.7873 13.985 30.4993 14.045C30.2173 14.111 29.9023 14.144 29.5543 14.144C29.2003 14.144 28.8673 14.096 28.5553 14C28.2433 13.898 27.9703 13.748 27.7363 13.55C27.5083 13.352 27.3253 13.103 27.1873 12.803C27.0553 12.497 26.9893 12.137 26.9893 11.723C26.9893 11.363 27.0883 11.018 27.2863 10.688C27.4843 10.352 27.8053 10.055 28.2493 9.797C28.6933 9.539 29.2723 9.329 29.9863 9.167C30.7003 8.999 31.5763 8.903 32.6143 8.879V8.168C32.6143 7.46 32.4613 6.926 32.1553 6.566C31.8493 6.2 31.4023 6.017 30.8143 6.017C30.4183 6.017 30.0853 6.068 29.8153 6.17C29.5513 6.266 29.3203 6.377 29.1223 6.503C28.9303 6.623 28.7623 6.734 28.6183 6.836C28.4803 6.932 28.3423 6.98 28.2043 6.98C28.0963 6.98 28.0033 6.953 27.9253 6.899C27.8473 6.839 27.7813 6.767 27.7273 6.683L27.4393 6.17ZM44.9575 14H43.3555V6.224H38.6575V11.696C38.6575 12.08 38.7505 12.365 38.9365 12.551C39.1225 12.737 39.3625 12.83 39.6565 12.83C39.8245 12.83 39.9685 12.809 40.0885 12.767C40.2145 12.719 40.3225 12.668 40.4125 12.614C40.5025 12.56 40.5775 12.512 40.6375 12.47C40.7035 12.422 40.7605 12.398 40.8085 12.398C40.8925 12.398 40.9675 12.449 41.0335 12.551L41.5015 13.316C41.2255 13.574 40.8925 13.778 40.5025 13.928C40.1125 14.072 39.7105 14.144 39.2965 14.144C38.5765 14.144 38.0215 13.943 37.6315 13.541C37.2475 13.139 37.0555 12.56 37.0555 11.804V6.224H35.9575C35.8615 6.224 35.7805 6.197 35.7145 6.143C35.6485 6.083 35.6155 5.993 35.6155 5.873V5.234L37.1095 5.036L37.4785 2.228C37.4965 2.138 37.5355 2.066 37.5955 2.012C37.6615 1.952 37.7455 1.922 37.8475 1.922H38.6575V5.063H44.9575V14ZM45.3535 1.958C45.3535 2.114 45.3205 2.261 45.2545 2.399C45.1945 2.531 45.1105 2.648 45.0025 2.75C44.9005 2.852 44.7805 2.933 44.6425 2.993C44.5045 3.053 44.3575 3.083 44.2015 3.083C44.0455 3.083 43.8985 3.053 43.7605 2.993C43.6285 2.933 43.5115 2.852 43.4095 2.75C43.3075 2.648 43.2265 2.531 43.1665 2.399C43.1065 2.261 43.0765 2.114 43.0765 1.958C43.0765 1.802 43.1065 1.655 43.1665 1.517C43.2265 1.373 43.3075 1.25 43.4095 1.148C43.5115 1.04 43.6285 0.955999 43.7605 0.895999C43.8985 0.835999 44.0455 0.805999 44.2015 0.805999C44.3575 0.805999 44.5045 0.835999 44.6425 0.895999C44.7805 0.955999 44.9005 1.04 45.0025 1.148C45.1105 1.25 45.1945 1.373 45.2545 1.517C45.3205 1.655 45.3535 1.802 45.3535 1.958ZM51.4323 4.739C52.0983 4.739 52.6983 4.85 53.2323 5.072C53.7663 5.294 54.2223 5.609 54.6003 6.017C54.9783 6.425 55.2663 6.92 55.4643 7.502C55.6683 8.078 55.7703 8.723 55.7703 9.437C55.7703 10.157 55.6683 10.805 55.4643 11.381C55.2663 11.957 54.9783 12.449 54.6003 12.857C54.2223 13.265 53.7663 13.58 53.2323 13.802C52.6983 14.018 52.0983 14.126 51.4323 14.126C50.7603 14.126 50.1543 14.018 49.6143 13.802C49.0803 13.58 48.6243 13.265 48.2463 12.857C47.8683 12.449 47.5773 11.957 47.3733 11.381C47.1753 10.805 47.0763 10.157 47.0763 9.437C47.0763 8.723 47.1753 8.078 47.3733 7.502C47.5773 6.92 47.8683 6.425 48.2463 6.017C48.6243 5.609 49.0803 5.294 49.6143 5.072C50.1543 4.85 50.7603 4.739 51.4323 4.739ZM51.4323 12.875C52.3323 12.875 53.0043 12.575 53.4483 11.975C53.8923 11.369 54.1143 10.526 54.1143 9.446C54.1143 8.36 53.8923 7.514 53.4483 6.908C53.0043 6.302 52.3323 5.999 51.4323 5.999C50.9763 5.999 50.5773 6.077 50.2353 6.233C49.8993 6.389 49.6173 6.614 49.3893 6.908C49.1673 7.202 48.9993 7.565 48.8853 7.997C48.7773 8.423 48.7233 8.906 48.7233 9.446C48.7233 10.526 48.9453 11.369 49.3893 11.975C49.8393 12.575 50.5203 12.875 51.4323 12.875ZM59.3142 6.206C59.5122 5.984 59.7222 5.783 59.9442 5.603C60.1662 5.423 60.4002 5.27 60.6462 5.144C60.8982 5.012 61.1622 4.913 61.4382 4.847C61.7202 4.775 62.0232 4.739 62.3472 4.739C62.8452 4.739 63.2832 4.823 63.6612 4.991C64.0452 5.153 64.3632 5.387 64.6152 5.693C64.8732 5.993 65.0682 6.356 65.2002 6.782C65.3322 7.208 65.3982 7.679 65.3982 8.195V14H63.7872V8.195C63.7872 7.505 63.6282 6.971 63.3102 6.593C62.9982 6.209 62.5212 6.017 61.8792 6.017C61.4052 6.017 60.9612 6.131 60.5472 6.359C60.1392 6.587 59.7612 6.896 59.4132 7.286V14H57.8022V4.883H58.7652C58.9932 4.883 59.1342 4.994 59.1882 5.216L59.3142 6.206ZM73.1493 6.386C73.0773 6.518 72.9663 6.584 72.8163 6.584C72.7263 6.584 72.6243 6.551 72.5103 6.485C72.3963 6.419 72.2553 6.347 72.0873 6.269C71.9253 6.185 71.7303 6.11 71.5023 6.044C71.2743 5.972 71.0043 5.936 70.6923 5.936C70.4223 5.936 70.1793 5.972 69.9633 6.044C69.7473 6.11 69.5613 6.203 69.4053 6.323C69.2553 6.443 69.1383 6.584 69.0543 6.746C68.9763 6.902 68.9373 7.073 68.9373 7.259C68.9373 7.493 69.0033 7.688 69.1353 7.844C69.2733 8 69.4533 8.135 69.6753 8.249C69.8973 8.363 70.1493 8.465 70.4313 8.555C70.7133 8.639 71.0013 8.732 71.2953 8.834C71.5953 8.93 71.8863 9.038 72.1683 9.158C72.4503 9.278 72.7023 9.428 72.9243 9.608C73.1463 9.788 73.3233 10.01 73.4553 10.274C73.5933 10.532 73.6623 10.844 73.6623 11.21C73.6623 11.63 73.5873 12.02 73.4373 12.38C73.2873 12.734 73.0653 13.043 72.7713 13.307C72.4773 13.565 72.1173 13.769 71.6913 13.919C71.2653 14.069 70.7733 14.144 70.2153 14.144C69.5793 14.144 69.0033 14.042 68.4873 13.838C67.9713 13.628 67.5333 13.361 67.1733 13.037L67.5513 12.425C67.5993 12.347 67.6563 12.287 67.7223 12.245C67.7883 12.203 67.8723 12.182 67.9743 12.182C68.0823 12.182 68.1963 12.224 68.3163 12.308C68.4363 12.392 68.5803 12.485 68.7483 12.587C68.9223 12.689 69.1323 12.782 69.3783 12.866C69.6243 12.95 69.9303 12.992 70.2963 12.992C70.6083 12.992 70.8813 12.953 71.1153 12.875C71.3493 12.791 71.5443 12.68 71.7003 12.542C71.8563 12.404 71.9703 12.245 72.0423 12.065C72.1203 11.885 72.1593 11.693 72.1593 11.489C72.1593 11.237 72.0903 11.03 71.9523 10.868C71.8203 10.7 71.6433 10.559 71.4213 10.445C71.1993 10.325 70.9443 10.223 70.6563 10.139C70.3743 10.049 70.0833 9.956 69.7833 9.86C69.4893 9.764 69.1983 9.656 68.9103 9.536C68.6283 9.41 68.3763 9.254 68.1543 9.068C67.9323 8.882 67.7523 8.654 67.6143 8.384C67.4823 8.108 67.4163 7.775 67.4163 7.385C67.4163 7.037 67.4883 6.704 67.6323 6.386C67.7763 6.062 67.9863 5.78 68.2623 5.54C68.5383 5.294 68.8773 5.099 69.2793 4.955C69.6813 4.811 70.1403 4.739 70.6563 4.739C71.2563 4.739 71.7933 4.835 72.2673 5.027C72.7473 5.213 73.1613 5.471 73.5093 5.801L73.1493 6.386Z" fill="white"/>
</svg>
