<svg width="54" height="15" viewBox="0 0 54 15" fill="none" xmlns="http://www.w3.org/2000/svg">
<path d="M12.132 1.103L6.876 14H5.31L0.054 1.103H1.449C1.605 1.103 1.731 1.142 1.827 1.22C1.923 1.298 1.995 1.397 2.043 1.517L5.679 10.616C5.757 10.82 5.832 11.042 5.904 11.282C5.982 11.522 6.051 11.774 6.111 12.038C6.171 11.774 6.234 11.522 6.3 11.282C6.366 11.042 6.438 10.82 6.516 10.616L10.143 1.517C10.179 1.415 10.248 1.322 10.35 1.238C10.458 1.148 10.587 1.103 10.737 1.103H12.132ZM15.1426 4.883V14H13.5406V4.883H15.1426ZM15.4846 2.021C15.4846 2.177 15.4516 2.324 15.3856 2.462C15.3256 2.594 15.2416 2.714 15.1336 2.822C15.0316 2.924 14.9086 3.005 14.7646 3.065C14.6266 3.125 14.4796 3.155 14.3236 3.155C14.1676 3.155 14.0206 3.125 13.8826 3.065C13.7506 3.005 13.6336 2.924 13.5316 2.822C13.4296 2.714 13.3486 2.594 13.2886 2.462C13.2286 2.324 13.1986 2.177 13.1986 2.021C13.1986 1.865 13.2286 1.718 13.2886 1.58C13.3486 1.436 13.4296 1.313 13.5316 1.211C13.6336 1.103 13.7506 1.019 13.8826 0.958999C14.0206 0.898999 14.1676 0.868999 14.3236 0.868999C14.4796 0.868999 14.6266 0.898999 14.7646 0.958999C14.9086 1.019 15.0316 1.103 15.1336 1.211C15.2416 1.313 15.3256 1.436 15.3856 1.58C15.4516 1.718 15.4846 1.865 15.4846 2.021ZM23.7149 7.052C23.4149 6.65 23.0909 6.371 22.7429 6.215C22.3949 6.053 22.0049 5.972 21.5729 5.972C20.7269 5.972 20.0759 6.275 19.6199 6.881C19.1639 7.487 18.9359 8.351 18.9359 9.473C18.9359 10.067 18.9869 10.577 19.0889 11.003C19.1909 11.423 19.3409 11.771 19.5389 12.047C19.7369 12.317 19.9799 12.515 20.2679 12.641C20.5559 12.767 20.8829 12.83 21.2489 12.83C21.7769 12.83 22.2359 12.71 22.6259 12.47C23.0219 12.23 23.3849 11.891 23.7149 11.453V7.052ZM25.3169 0.743V14H24.3629C24.1349 14 23.9909 13.889 23.9309 13.667L23.7869 12.56C23.3969 13.028 22.9529 13.406 22.4549 13.694C21.9569 13.982 21.3809 14.126 20.7269 14.126C20.2049 14.126 19.7309 14.027 19.3049 13.829C18.8789 13.625 18.5159 13.328 18.2159 12.938C17.9159 12.548 17.6849 12.062 17.5229 11.48C17.3609 10.898 17.2799 10.229 17.2799 9.473C17.2799 8.801 17.3699 8.177 17.5499 7.601C17.7299 7.019 17.9879 6.515 18.3239 6.089C18.6599 5.663 19.0709 5.33 19.5569 5.09C20.0489 4.844 20.6009 4.721 21.2129 4.721C21.7709 4.721 22.2479 4.817 22.6439 5.009C23.0459 5.195 23.4029 5.456 23.7149 5.792V0.743H25.3169ZM33.9491 8.447C33.9491 8.075 33.8951 7.736 33.7871 7.43C33.6851 7.118 33.5321 6.851 33.3281 6.629C33.1301 6.401 32.8871 6.227 32.5991 6.107C32.3111 5.981 31.9841 5.918 31.6181 5.918C30.8501 5.918 30.2411 6.143 29.7911 6.593C29.3471 7.037 29.0711 7.655 28.9631 8.447H33.9491ZM35.2451 12.722C35.0471 12.962 34.8101 13.172 34.5341 13.352C34.2581 13.526 33.9611 13.67 33.6431 13.784C33.3311 13.898 33.0071 13.982 32.6711 14.036C32.3351 14.096 32.0021 14.126 31.6721 14.126C31.0421 14.126 30.4601 14.021 29.9261 13.811C29.3981 13.595 28.9391 13.283 28.5491 12.875C28.1651 12.461 27.8651 11.951 27.6491 11.345C27.4331 10.739 27.3251 10.043 27.3251 9.257C27.3251 8.621 27.4211 8.027 27.6131 7.475C27.8111 6.923 28.0931 6.446 28.4591 6.044C28.8251 5.636 29.2721 5.318 29.8001 5.09C30.3281 4.856 30.9221 4.739 31.5821 4.739C32.1281 4.739 32.6321 4.832 33.0941 5.018C33.5621 5.198 33.9641 5.462 34.3001 5.81C34.6421 6.152 34.9091 6.578 35.1011 7.088C35.2931 7.592 35.3891 8.168 35.3891 8.816C35.3891 9.068 35.3621 9.236 35.3081 9.32C35.2541 9.404 35.1521 9.446 35.0021 9.446H28.9091C28.9271 10.022 29.0051 10.523 29.1431 10.949C29.2871 11.375 29.4851 11.732 29.7371 12.02C29.9891 12.302 30.2891 12.515 30.6371 12.659C30.9851 12.797 31.3751 12.866 31.8071 12.866C32.2091 12.866 32.5541 12.821 32.8421 12.731C33.1361 12.635 33.3881 12.533 33.5981 12.425C33.8081 12.317 33.9821 12.218 34.1201 12.128C34.2641 12.032 34.3871 11.984 34.4891 11.984C34.6211 11.984 34.7231 12.035 34.7951 12.137L35.2451 12.722ZM41.1999 4.739C41.8659 4.739 42.4659 4.85 42.9999 5.072C43.5339 5.294 43.9899 5.609 44.3679 6.017C44.7459 6.425 45.0339 6.92 45.2319 7.502C45.4359 8.078 45.5379 8.723 45.5379 9.437C45.5379 10.157 45.4359 10.805 45.2319 11.381C45.0339 11.957 44.7459 12.449 44.3679 12.857C43.9899 13.265 43.5339 13.58 42.9999 13.802C42.4659 14.018 41.8659 14.126 41.1999 14.126C40.5279 14.126 39.9219 14.018 39.3819 13.802C38.8479 13.58 38.3919 13.265 38.0139 12.857C37.6359 12.449 37.3449 11.957 37.1409 11.381C36.9429 10.805 36.8439 10.157 36.8439 9.437C36.8439 8.723 36.9429 8.078 37.1409 7.502C37.3449 6.92 37.6359 6.425 38.0139 6.017C38.3919 5.609 38.8479 5.294 39.3819 5.072C39.9219 4.85 40.5279 4.739 41.1999 4.739ZM41.1999 12.875C42.0999 12.875 42.7719 12.575 43.2159 11.975C43.6599 11.369 43.8819 10.526 43.8819 9.446C43.8819 8.36 43.6599 7.514 43.2159 6.908C42.7719 6.302 42.0999 5.999 41.1999 5.999C40.7439 5.999 40.3449 6.077 40.0029 6.233C39.6669 6.389 39.3849 6.614 39.1569 6.908C38.9349 7.202 38.7669 7.565 38.6529 7.997C38.5449 8.423 38.4909 8.906 38.4909 9.446C38.4909 10.526 38.7129 11.369 39.1569 11.975C39.6069 12.575 40.2879 12.875 41.1999 12.875ZM52.8798 6.386C52.8078 6.518 52.6968 6.584 52.5468 6.584C52.4568 6.584 52.3548 6.551 52.2408 6.485C52.1268 6.419 51.9858 6.347 51.8178 6.269C51.6558 6.185 51.4608 6.11 51.2328 6.044C51.0048 5.972 50.7348 5.936 50.4228 5.936C50.1528 5.936 49.9098 5.972 49.6938 6.044C49.4778 6.11 49.2918 6.203 49.1358 6.323C48.9858 6.443 48.8688 6.584 48.7848 6.746C48.7068 6.902 48.6678 7.073 48.6678 7.259C48.6678 7.493 48.7338 7.688 48.8658 7.844C49.0038 8 49.1838 8.135 49.4058 8.249C49.6278 8.363 49.8798 8.465 50.1618 8.555C50.4438 8.639 50.7318 8.732 51.0258 8.834C51.3258 8.93 51.6168 9.038 51.8988 9.158C52.1808 9.278 52.4328 9.428 52.6548 9.608C52.8768 9.788 53.0538 10.01 53.1858 10.274C53.3238 10.532 53.3928 10.844 53.3928 11.21C53.3928 11.63 53.3178 12.02 53.1678 12.38C53.0178 12.734 52.7958 13.043 52.5018 13.307C52.2078 13.565 51.8478 13.769 51.4218 13.919C50.9958 14.069 50.5038 14.144 49.9458 14.144C49.3098 14.144 48.7338 14.042 48.2178 13.838C47.7018 13.628 47.2638 13.361 46.9038 13.037L47.2818 12.425C47.3298 12.347 47.3868 12.287 47.4528 12.245C47.5188 12.203 47.6028 12.182 47.7048 12.182C47.8128 12.182 47.9268 12.224 48.0468 12.308C48.1668 12.392 48.3108 12.485 48.4788 12.587C48.6528 12.689 48.8628 12.782 49.1088 12.866C49.3548 12.95 49.6608 12.992 50.0268 12.992C50.3388 12.992 50.6118 12.953 50.8458 12.875C51.0798 12.791 51.2748 12.68 51.4308 12.542C51.5868 12.404 51.7008 12.245 51.7728 12.065C51.8508 11.885 51.8898 11.693 51.8898 11.489C51.8898 11.237 51.8208 11.03 51.6828 10.868C51.5508 10.7 51.3738 10.559 51.1518 10.445C50.9298 10.325 50.6748 10.223 50.3868 10.139C50.1048 10.049 49.8138 9.956 49.5138 9.86C49.2198 9.764 48.9288 9.656 48.6408 9.536C48.3588 9.41 48.1068 9.254 47.8848 9.068C47.6628 8.882 47.4828 8.654 47.3448 8.384C47.2128 8.108 47.1468 7.775 47.1468 7.385C47.1468 7.037 47.2188 6.704 47.3628 6.386C47.5068 6.062 47.7168 5.78 47.9928 5.54C48.2688 5.294 48.6078 5.099 49.0098 4.955C49.4118 4.811 49.8708 4.739 50.3868 4.739C50.9868 4.739 51.5238 4.835 51.9978 5.027C52.4778 5.213 52.8918 5.471 53.2398 5.801L52.8798 6.386Z" fill="white"/>
</svg>
