<svg width="52" height="18" viewBox="0 0 52 18" fill="none" xmlns="http://www.w3.org/2000/svg">
<path d="M8.244 3.119C8.19 3.209 8.13 3.278 8.064 3.326C8.004 3.368 7.929 3.389 7.839 3.389C7.737 3.389 7.617 3.338 7.479 3.236C7.341 3.134 7.167 3.023 6.957 2.903C6.753 2.777 6.504 2.663 6.21 2.561C5.922 2.459 5.571 2.408 5.157 2.408C4.767 2.408 4.422 2.462 4.122 2.57C3.828 2.672 3.579 2.813 3.375 2.993C3.177 3.173 3.027 3.386 2.925 3.632C2.823 3.872 2.772 4.133 2.772 4.415C2.772 4.775 2.859 5.075 3.033 5.315C3.213 5.549 3.447 5.75 3.735 5.918C4.029 6.086 4.359 6.233 4.725 6.359C5.097 6.479 5.475 6.605 5.859 6.737C6.249 6.869 6.627 7.019 6.993 7.187C7.365 7.349 7.695 7.556 7.983 7.808C8.277 8.06 8.511 8.369 8.685 8.735C8.865 9.101 8.955 9.551 8.955 10.085C8.955 10.649 8.859 11.18 8.667 11.678C8.475 12.17 8.193 12.599 7.821 12.965C7.455 13.331 7.002 13.619 6.462 13.829C5.928 14.039 5.319 14.144 4.635 14.144C3.795 14.144 3.033 13.994 2.349 13.694C1.665 13.388 1.08 12.977 0.594 12.461L1.098 11.633C1.146 11.567 1.203 11.513 1.269 11.471C1.341 11.423 1.419 11.399 1.503 11.399C1.581 11.399 1.668 11.432 1.764 11.498C1.866 11.558 1.98 11.636 2.106 11.732C2.232 11.828 2.376 11.933 2.538 12.047C2.7 12.161 2.883 12.266 3.087 12.362C3.297 12.458 3.534 12.539 3.798 12.605C4.062 12.665 4.359 12.695 4.689 12.695C5.103 12.695 5.472 12.638 5.796 12.524C6.12 12.41 6.393 12.251 6.615 12.047C6.843 11.837 7.017 11.588 7.137 11.3C7.257 11.012 7.317 10.691 7.317 10.337C7.317 9.947 7.227 9.629 7.047 9.383C6.873 9.131 6.642 8.921 6.354 8.753C6.066 8.585 5.736 8.444 5.364 8.33C4.992 8.21 4.614 8.09 4.23 7.97C3.846 7.844 3.468 7.7 3.096 7.538C2.724 7.376 2.394 7.166 2.106 6.908C1.818 6.65 1.584 6.329 1.404 5.945C1.23 5.555 1.143 5.075 1.143 4.505C1.143 4.049 1.23 3.608 1.404 3.182C1.584 2.756 1.842 2.378 2.178 2.048C2.52 1.718 2.937 1.454 3.429 1.256C3.927 1.058 4.497 0.958999 5.139 0.958999C5.859 0.958999 6.513 1.073 7.101 1.301C7.695 1.529 8.217 1.859 8.667 2.291L8.244 3.119ZM12.6465 4.883V14H11.0445V4.883H12.6465ZM12.9885 2.021C12.9885 2.177 12.9555 2.324 12.8895 2.462C12.8295 2.594 12.7455 2.714 12.6375 2.822C12.5355 2.924 12.4125 3.005 12.2685 3.065C12.1305 3.125 11.9835 3.155 11.8275 3.155C11.6715 3.155 11.5245 3.125 11.3865 3.065C11.2545 3.005 11.1375 2.924 11.0355 2.822C10.9335 2.714 10.8525 2.594 10.7925 2.462C10.7325 2.324 10.7025 2.177 10.7025 2.021C10.7025 1.865 10.7325 1.718 10.7925 1.58C10.8525 1.436 10.9335 1.313 11.0355 1.211C11.1375 1.103 11.2545 1.019 11.3865 0.958999C11.5245 0.898999 11.6715 0.868999 11.8275 0.868999C11.9835 0.868999 12.1305 0.898999 12.2685 0.958999C12.4125 1.019 12.5355 1.103 12.6375 1.211C12.7455 1.313 12.8295 1.436 12.8895 1.58C12.9555 1.718 12.9885 1.865 12.9885 2.021ZM18.4558 9.545C18.7798 9.545 19.0648 9.5 19.3108 9.41C19.5568 9.32 19.7638 9.194 19.9318 9.032C20.0998 8.87 20.2258 8.678 20.3098 8.456C20.3938 8.228 20.4358 7.979 20.4358 7.709C20.4358 7.151 20.2648 6.707 19.9228 6.377C19.5868 6.047 19.0978 5.882 18.4558 5.882C17.8078 5.882 17.3128 6.047 16.9708 6.377C16.6348 6.707 16.4668 7.151 16.4668 7.709C16.4668 7.979 16.5088 8.228 16.5928 8.456C16.6828 8.678 16.8118 8.87 16.9798 9.032C17.1478 9.194 17.3548 9.32 17.6008 9.41C17.8468 9.5 18.1318 9.545 18.4558 9.545ZM21.3448 14.495C21.3448 14.273 21.2818 14.093 21.1558 13.955C21.0298 13.817 20.8588 13.709 20.6428 13.631C20.4328 13.553 20.1868 13.499 19.9048 13.469C19.6228 13.433 19.3228 13.406 19.0048 13.388C18.6928 13.37 18.3748 13.352 18.0508 13.334C17.7268 13.316 17.4148 13.286 17.1148 13.244C16.7788 13.4 16.5028 13.598 16.2868 13.838C16.0768 14.072 15.9718 14.348 15.9718 14.666C15.9718 14.87 16.0228 15.059 16.1248 15.233C16.2328 15.413 16.3948 15.566 16.6108 15.692C16.8268 15.824 17.0968 15.926 17.4208 15.998C17.7508 16.076 18.1378 16.115 18.5818 16.115C19.0138 16.115 19.4008 16.076 19.7428 15.998C20.0848 15.92 20.3728 15.809 20.6068 15.665C20.8468 15.521 21.0298 15.35 21.1558 15.152C21.2818 14.954 21.3448 14.735 21.3448 14.495ZM22.9738 5.243V5.837C22.9738 6.035 22.8478 6.161 22.5958 6.215L21.5608 6.35C21.7648 6.746 21.8668 7.184 21.8668 7.664C21.8668 8.108 21.7798 8.513 21.6058 8.879C21.4378 9.239 21.2038 9.548 20.9038 9.806C20.6038 10.064 20.2438 10.262 19.8238 10.4C19.4038 10.538 18.9478 10.607 18.4558 10.607C18.0298 10.607 17.6278 10.556 17.2498 10.454C17.0578 10.574 16.9108 10.703 16.8088 10.841C16.7068 10.973 16.6558 11.108 16.6558 11.246C16.6558 11.462 16.7428 11.627 16.9168 11.741C17.0968 11.849 17.3308 11.927 17.6188 11.975C17.9068 12.023 18.2338 12.053 18.5998 12.065C18.9718 12.077 19.3498 12.098 19.7338 12.128C20.1238 12.152 20.5018 12.197 20.8678 12.263C21.2398 12.329 21.5698 12.437 21.8578 12.587C22.1458 12.737 22.3768 12.944 22.5508 13.208C22.7308 13.472 22.8208 13.814 22.8208 14.234C22.8208 14.624 22.7218 15.002 22.5238 15.368C22.3318 15.734 22.0528 16.058 21.6868 16.34C21.3208 16.628 20.8708 16.856 20.3368 17.024C19.8088 17.198 19.2118 17.285 18.5458 17.285C17.8798 17.285 17.2978 17.219 16.7998 17.087C16.3018 16.955 15.8878 16.778 15.5578 16.556C15.2278 16.334 14.9788 16.076 14.8108 15.782C14.6488 15.494 14.5678 15.191 14.5678 14.873C14.5678 14.423 14.7088 14.042 14.9908 13.73C15.2728 13.418 15.6598 13.169 16.1518 12.983C15.8818 12.863 15.6658 12.704 15.5038 12.506C15.3478 12.302 15.2698 12.029 15.2698 11.687C15.2698 11.555 15.2938 11.42 15.3418 11.282C15.3898 11.138 15.4618 10.997 15.5578 10.859C15.6598 10.715 15.7828 10.58 15.9268 10.454C16.0708 10.328 16.2388 10.217 16.4308 10.121C15.9808 9.869 15.6298 9.536 15.3778 9.122C15.1258 8.702 14.9998 8.216 14.9998 7.664C14.9998 7.22 15.0838 6.818 15.2518 6.458C15.4258 6.092 15.6658 5.783 15.9718 5.531C16.2778 5.273 16.6408 5.075 17.0608 4.937C17.4868 4.799 17.9518 4.73 18.4558 4.73C18.8518 4.73 19.2208 4.775 19.5628 4.865C19.9048 4.949 20.2168 5.075 20.4988 5.243H22.9738ZM26.1423 6.206C26.3403 5.984 26.5503 5.783 26.7723 5.603C26.9943 5.423 27.2283 5.27 27.4743 5.144C27.7263 5.012 27.9903 4.913 28.2663 4.847C28.5483 4.775 28.8513 4.739 29.1753 4.739C29.6733 4.739 30.1113 4.823 30.4893 4.991C30.8733 5.153 31.1913 5.387 31.4433 5.693C31.7013 5.993 31.8963 6.356 32.0283 6.782C32.1603 7.208 32.2263 7.679 32.2263 8.195V14H30.6153V8.195C30.6153 7.505 30.4563 6.971 30.1383 6.593C29.8263 6.209 29.3493 6.017 28.7073 6.017C28.2333 6.017 27.7893 6.131 27.3753 6.359C26.9673 6.587 26.5893 6.896 26.2413 7.286V14H24.6303V4.883H25.5933C25.8213 4.883 25.9623 4.994 26.0163 5.216L26.1423 6.206ZM40.9649 4.883V14H39.3629V4.883H40.9649ZM41.3069 2.021C41.3069 2.177 41.2739 2.324 41.2079 2.462C41.1479 2.594 41.0639 2.714 40.9559 2.822C40.8539 2.924 40.7309 3.005 40.5869 3.065C40.4489 3.125 40.3019 3.155 40.1459 3.155C39.9899 3.155 39.8429 3.125 39.7049 3.065C39.5729 3.005 39.4559 2.924 39.3539 2.822C39.2519 2.714 39.1709 2.594 39.1109 2.462C39.0509 2.324 39.0209 2.177 39.0209 2.021C39.0209 1.865 39.0509 1.718 39.1109 1.58C39.1709 1.436 39.2519 1.313 39.3539 1.211C39.4559 1.103 39.5729 1.019 39.7049 0.958999C39.8429 0.898999 39.9899 0.868999 40.1459 0.868999C40.3019 0.868999 40.4489 0.898999 40.5869 0.958999C40.7309 1.019 40.8539 1.103 40.9559 1.211C41.0639 1.313 41.1479 1.436 41.2079 1.58C41.2739 1.718 41.3069 1.865 41.3069 2.021ZM45.1091 6.206C45.3071 5.984 45.5171 5.783 45.7391 5.603C45.9611 5.423 46.1951 5.27 46.4411 5.144C46.6931 5.012 46.9571 4.913 47.2331 4.847C47.5151 4.775 47.8181 4.739 48.1421 4.739C48.6401 4.739 49.0781 4.823 49.4561 4.991C49.8401 5.153 50.1581 5.387 50.4101 5.693C50.6681 5.993 50.8631 6.356 50.9951 6.782C51.1271 7.208 51.1931 7.679 51.1931 8.195V14H49.5821V8.195C49.5821 7.505 49.4231 6.971 49.1051 6.593C48.7931 6.209 48.3161 6.017 47.6741 6.017C47.2001 6.017 46.7561 6.131 46.3421 6.359C45.9341 6.587 45.5561 6.896 45.2081 7.286V14H43.5971V4.883H44.5601C44.7881 4.883 44.9291 4.994 44.9831 5.216L45.1091 6.206Z" fill="white"/>
</svg>
